<svg xmlns="http://www.w3.org/2000/svg" width="237" height="237" viewBox="0 0 237 237"><rect width="100%" height="100%" fill="#DDDDDD"/><path fill="#999999" d="M55.455 126.385h5.94q.64 0 1.02.36.37.36.37.95v2.37h-15.87v-1.31q0-.4.17-.84.17-.44.53-.79l7.03-7.04q.88-.9 1.57-1.72.7-.81 1.16-1.61.47-.8.72-1.63.24-.82.24-1.73 0-.83-.24-1.47-.24-.63-.68-1.06-.44-.43-1.05-.65-.62-.21-1.39-.21-.7 0-1.3.2-.6.2-1.06.56-.47.36-.79.84-.32.48-.48 1.05-.27.74-.7.98-.43.24-1.25.11l-2.08-.37q.24-1.66.93-2.92.69-1.25 1.72-2.09 1.03-.84 2.37-1.27 1.33-.42 2.87-.42 1.6 0 2.93.47 1.32.47 2.27 1.34.94.86 1.47 2.08.53 1.21.53 2.7 0 1.28-.38 2.37-.37 1.09-1.01 2.08-.63.99-1.48 1.92-.84.93-1.77 1.89l-5.22 5.32q.75-.22 1.5-.34.74-.12 1.41-.12Zm12.61-12.64-2.08-.37q.24-1.66.93-2.92.69-1.25 1.72-2.09 1.03-.84 2.37-1.27 1.33-.42 2.87-.42 1.6 0 2.89.45 1.29.46 2.2 1.27.91.81 1.4 1.89.49 1.09.49 2.36 0 1.1-.25 1.94-.25.84-.71 1.46-.47.63-1.16 1.06-.68.43-1.55.72 2.08.66 3.11 2 1.02 1.34 1.02 3.38 0 1.72-.64 3.05-.64 1.33-1.73 2.23-1.09.91-2.52 1.37-1.43.47-3.03.47-1.74 0-3.04-.4t-2.26-1.19q-.96-.78-1.63-1.92-.67-1.13-1.15-2.62l1.74-.72q.69-.29 1.29-.15.6.13.87.64.29.56.64 1.11.34.54.82.97.48.42 1.13.68.65.27 1.54.27 1.01 0 1.76-.33t1.26-.86q.5-.52.75-1.17.25-.65.25-1.31 0-.83-.18-1.51-.17-.68-.73-1.16-.56-.48-1.61-.75t-2.81-.27v-2.82q1.46-.01 2.42-.27t1.52-.71q.57-.46.8-1.1.22-.64.22-1.41 0-1.63-.91-2.48-.91-.84-2.43-.84-.71 0-1.3.2-.59.2-1.06.56-.48.36-.8.84-.32.48-.48 1.05-.27.74-.71.98-.44.24-1.24.11Zm16.24-6.82h15.99v1.72q0 .76-.16 1.24-.16.47-.32.79l-8.77 18.05q-.27.56-.77.95-.5.39-1.33.39h-2.86l8.94-17.68q.31-.54.6-1 .3-.46.67-.87h-11.08q-.36 0-.64-.27-.27-.28-.27-.64v-2.68Zm41.68 17.84-2.09 2.07-5.43-5.43-5.47 5.46-2.1-2.06 5.48-5.49-5.22-5.22 2.08-2.08 5.22 5.22 5.18-5.19 2.11 2.08-5.2 5.2 5.44 5.44Zm19.27 1.62h5.93q.64 0 1.02.36.37.36.37.95v2.37h-15.87v-1.31q0-.4.17-.84.17-.44.54-.79l7.02-7.04q.88-.9 1.58-1.72.69-.81 1.16-1.61.46-.8.71-1.63.25-.82.25-1.73 0-.83-.24-1.47-.24-.63-.68-1.06-.44-.43-1.06-.65-.62-.21-1.38-.21-.71 0-1.31.2-.6.2-1.06.56-.47.36-.79.84-.32.48-.48 1.05-.27.74-.7.98-.43.24-1.25.11l-2.08-.37q.24-1.66.93-2.92.69-1.25 1.72-2.09 1.03-.84 2.37-1.27 1.33-.42 2.87-.42 1.6 0 2.93.47t2.27 1.34q.94.86 1.47 2.08.53 1.21.53 2.7 0 1.28-.38 2.37-.37 1.09-1 2.08-.64.99-1.48 1.92-.85.93-1.78 1.89l-5.22 5.32q.76-.22 1.5-.34.74-.12 1.42-.12Zm12.6-12.64-2.08-.37q.24-1.66.93-2.92.69-1.25 1.72-2.09 1.03-.84 2.37-1.27 1.34-.42 2.87-.42 1.6 0 2.89.45 1.29.46 2.2 1.27.91.81 1.4 1.89.49 1.09.49 2.36 0 1.1-.25 1.94-.25.84-.71 1.46-.47.63-1.15 1.06-.69.43-1.56.72 2.08.66 3.11 2 1.02 1.34 1.02 3.38 0 1.72-.64 3.05-.64 1.33-1.73 2.23-1.08.91-2.52 1.37-1.43.47-3.03.47-1.74 0-3.04-.4-1.29-.4-2.25-1.19-.96-.78-1.64-1.92-.67-1.13-1.15-2.62l1.75-.72q.68-.29 1.28-.15.6.13.88.64.28.56.63 1.11.34.54.82.97.48.42 1.13.68.65.27 1.54.27 1.01 0 1.76-.33.76-.33 1.26-.86.5-.52.75-1.17.25-.65.25-1.31 0-.83-.18-1.51-.17-.68-.73-1.16-.56-.48-1.61-.75t-2.81-.27v-2.82q1.46-.01 2.42-.27t1.53-.71q.56-.46.79-1.1.22-.64.22-1.41 0-1.63-.91-2.48-.91-.84-2.43-.84-.71 0-1.3.2-.59.2-1.06.56-.47.36-.79.84-.32.48-.48 1.05-.28.74-.72.98-.44.24-1.24.11Zm16.24-6.82h15.99v1.72q0 .76-.16 1.24-.16.47-.32.79l-8.77 18.05q-.27.56-.77.95-.49.39-1.33.39h-2.86l8.94-17.68q.31-.54.6-1 .3-.46.67-.87h-11.07q-.37 0-.64-.27-.28-.28-.28-.64v-2.68Z"/></svg>